<svg xmlns="http://www.w3.org/2000/svg" viewBox="0 0 21 22"><path d="M19.3 2h-2.8V.6c0-.4-.3-.7-.7-.7-.4 0-.7.3-.7.7V2h-3.9V.6c0-.4-.3-.7-.7-.7-.4 0-.7.3-.7.7V2H5.9V.6c0-.3-.3-.6-.7-.6-.3 0-.6.3-.6.6V2H1.8C.8 2 0 2.8 0 3.9v16.3c0 1 .8 1.8 1.8 1.8h17.5c1 0 1.7-.8 1.7-1.8V3.9c0-1.1-.8-1.9-1.7-1.9zm.4 18.2c0 .3-.2.5-.4.5H1.8c-.2 0-.4-.2-.4-.5V3.9c0-.3.2-.5.4-.5h2.8v1.4c0 .4.3.7.7.7.4 0 .7-.3.7-.7V3.4h3.9v1.4c0 .4.3.7.7.7.4 0 .7-.3.7-.7V3.4h3.9v1.4c0 .4.3.7.7.7.4 0 .7-.3.7-.7V3.4h2.8c.2 0 .4.2.4.5l-.1 16.3z"/><path d="M4.6 8.2h2.6v2.1H4.6zM4.6 11.7h2.6v2.1H4.6zM4.6 15.1h2.6v2.1H4.6zM9.2 15.1h2.6v2.1H9.2zM9.2 11.7h2.6v2.1H9.2zM9.2 8.2h2.6v2.1H9.2zM13.8 15.1h2.6v2.1h-2.6zM13.8 11.7h2.6v2.1h-2.6zM13.8 8.2h2.6v2.1h-2.6z"/></svg>