<svg version="1.1" id="Layer_1" xmlns="http://www.w3.org/2000/svg" x="0" y="0" viewBox="0 0 75 72" xml:space="preserve"><style>.st0{fill:#81b3d2}</style><path class="st0" d="M29.7 65h16V41.2h-16V65zm2.9-20.9h10.1v18H32.6v-18z"/><path class="st0" d="M72.8 39.3l2.1-2.1-9.9-9.9V0H51.1v13.6L37.5 0 .2 37.2l2.1 2.1 7.8-7.8v37.6h-4V72H70v-2.9h-5.1V31.5l7.9 7.8zM62 69.1H13V28.5L37.5 4.1 62 28.5v40.6zm0-44.7l-7.9-7.9V2.9H62v21.5z"/><path class="st0" d="M29.9 27.1c0 4.3 3.5 7.7 7.7 7.7 4.3 0 7.8-3.5 7.8-7.7 0-4.3-3.5-7.7-7.8-7.7-4.2 0-7.7 3.4-7.7 7.7zm7.8-5c2.7 0 5 2.2 5 4.9s-2.2 4.9-5 4.9c-2.7 0-5-2.2-5-4.9s2.2-4.9 5-4.9zM17.1 41.2h3v3.9h-3zM23 41.2h3v3.9h-3zM17.1 47.2h3v3.9h-3zM23 47.2h3v3.9h-3zM49 41.2h3v3.9h-3zM54.9 41.2h3v3.9h-3zM49 47.2h3v3.9h-3zM54.9 47.2h3v3.9h-3z"/></svg>