<svg version="1.1" id="Layer_1" xmlns="http://www.w3.org/2000/svg" x="0" y="0" viewBox="0 0 113 39" xml:space="preserve"><style>.st0{fill:#fff}</style><path class="st0" d="M46.6 28.2c.2 0 .4 0 .6-.1v1.4c-.4.1-.8.2-1.2.2-.7.1-1.4-.3-1.7-1-.9.7-2.1 1.1-3.3 1.1-1.6 0-3-.9-3-2.6 0-2.2 2.1-2.9 3.9-2.9.8 0 1.5.1 2.3.3v-.3c0-1.1-.8-1.8-2.3-1.8-1.1 0-2.1.2-3.1.7v-1.8c1.1-.4 2.2-.6 3.3-.6 2.5 0 4 1.2 4 3.8v3.1c0 .3.2.6.5.6-.1 0-.1 0 0-.1zm-6.7-1.1c.1.8.7 1.3 1.5 1.3h.1c.9 0 1.8-.3 2.5-1v-1.5c-.6-.1-1.2-.2-1.9-.2-1 0-2.2.3-2.2 1.4zM52.8 20.7c.9 0 1.9.2 2.7.7v1.8c-.7-.5-1.5-.7-2.4-.7-1.6-.1-3 1-3.1 2.6s1 3 2.6 3.1h.5c.9 0 1.7-.2 2.5-.7v1.8c-.9.4-1.9.6-2.9.6-2.4.2-4.5-1.7-4.7-4.1v-.4c-.1-2.5 1.9-4.5 4.3-4.6.2-.1.3-.1.5-.1zM65.4 28.2c.2 0 .4 0 .6-.1v1.4c-.4.1-.8.2-1.2.2-.7.1-1.4-.3-1.7-1-.9.7-2.1 1.1-3.3 1.1-1.6 0-3-.9-3-2.6 0-2.2 2.1-2.9 3.9-2.9.8 0 1.5.1 2.3.3v-.3c0-1.1-.8-1.8-2.3-1.8-1.1 0-2.1.2-3.1.7v-1.8c1.1-.4 2.2-.6 3.3-.6 2.5 0 4 1.2 4 3.8v3.1c0 .3.2.6.5.6-.1 0-.1 0 0-.1zm-6.7-1.1c.1.8.7 1.3 1.5 1.3h.1c.9 0 1.8-.3 2.5-1v-1.5c-.6-.1-1.2-.2-1.9-.2-1.1 0-2.2.3-2.2 1.4zM76.1 17v12.6h-1.7v-1.4c-.8 1-2 1.6-3.3 1.6-2.5-.2-4.4-2.3-4.3-4.9.2-2.3 2-4.1 4.3-4.3 1.2 0 2.3.5 3.1 1.4v-5h1.9zm-4.7 5.4c-1.6 0-2.9 1.3-2.9 2.9 0 1.6 1.3 2.9 2.9 2.9 1.2 0 2.3-.7 2.8-1.8v-2.1c-.6-1.2-1.6-1.9-2.8-1.9zM82.3 20.7c3.4 0 4.6 2.8 4.1 5.3h-6.5c.2 1.6 1.7 2.2 3.3 2.2.9 0 1.9-.2 2.7-.6v1.7c-1 .4-2 .6-3.1.6-2.6 0-4.9-1.5-4.9-4.6-.1-2.4 1.7-4.4 4.1-4.5.1-.1.2-.1.3-.1zm.1 1.6c-1.3-.1-2.4.9-2.5 2.2v.1h4.8c.1-1.1-.7-2.1-1.8-2.2-.2-.1-.3-.1-.5-.1zM88.4 29.6V21h1.7v1.1c.7-.8 1.8-1.3 2.9-1.3 1.1-.1 2.1.5 2.7 1.4.8-.8 1.9-1.3 3-1.4 1.8-.1 3.2 1.3 3.3 3V29.6h-2v-5.3c.1-.9-.6-1.7-1.5-1.8h-.2c-.9.1-1.6.5-2.1 1.2v6h-2v-5.3c.1-.9-.6-1.7-1.5-1.8h-.2c-.9.1-1.8.6-2.3 1.3v5.8h-2l.2-.1zM110.5 21h2l-4.1 9.8c-.9 2.3-2.2 3-3.5 3-.4 0-.8-.1-1.1-.1V32c.3.1.6.1.9.1.9 0 1.6-.7 2.1-2l.2-.4-4.1-8.7h2.1l3 6.5 2.5-6.5zM40.5 1.9v4.9c.7-.8 1.7-1.2 2.8-1.2 1.9-.1 3.5 1.3 3.6 3.2v5.7h-2V9.4c.1-1-.6-2-1.7-2.1h-.3c-1 .1-1.9.6-2.4 1.4v5.7h-2V1.9h2zM52.1 2.8v3.1h3.1v1.7h-3.1v4c0 1.1.5 1.5 1.6 1.5.6 0 1.2-.1 1.7-.3v1.7c-.7.3-1.5.4-2.3.4-1.5.2-2.8-.9-3-2.3V7.5h-1.6V5.8h1.6V3.2l2-.4zM57.7 14.5V5.8h1.7v1.1c.7-.8 1.8-1.3 2.9-1.3 1.1-.1 2.1.5 2.7 1.4.8-.8 1.9-1.3 3-1.4 1.8-.1 3.2 1.3 3.3 3V14.4h-2V9.1c.1-.9-.6-1.7-1.5-1.8h-.2c-.9.1-1.6.5-2.1 1.2v6h-2V9.1c.1-.9-.5-1.7-1.5-1.8h-.2c-.9.1-1.8.6-2.3 1.3v5.8h-2l.2.1zM74.2 1.9h1.9v12.6h-1.9zM15.6.4h-.2L.3 2v27.7l15.1 9 15.1-9V2L15.6.4zm12.9 28.1l-13.1 7.8-13.1-7.8V17.2L15.4 25v1.4l-9-5.3v1.4l9 5.4v1.4l-9-5.4v1.4l9 5.4 9.1-5.4v-5.9l4.1-2.4-.1 11.5zm0-13l-3.6 2.1-1.7 1-7.9-4.7v1.4l6.8 4H22l-.1.1-1 .6-5.6-3.3V18l4.4 2.6-1 .7-3.3-2v1.4l2.2 1.3-2.2 1.3-13-7.7 13-7.8 13.1 7.7zm0-1.4L15.4 6.3l-13 7.8V3.7l13.1-1.4 13.1 1.4-.1 10.4z"/></svg>